# xmcd
#
# Track frame offsets:
#	150
#	16827
#	42810
#	62949
#	87912
#	99227
#	131457
#	146425
#	176873
#
# Disc length: 2612 seconds
#
# Revision: 1
# Processed by: cddbd v1.5.1PL0 Copyright (c) Steve Scherf et al.
# Submitted via: audiograbber 1.83.01
#
DISCID=700a3209
DTITLE=The Lebanon Blues - The Old Time Religion
DYEAR=2005
DGENRE=Country
TTITLE0=Down by the creek
TTITLE1=Another lady of the lake
TTITLE2=Green green grass of home
TTITLE3=Flying cowgirl waltz
TTITLE4=The long black veil
TTITLE5=Come sale away
TTITLE6=The shepherd
TTITLE7=The old time religion
TTITLE8=Up on this hill
EXTD=Produced and arranged by The Lebanon Blues - mixed and engineered by Jürgen Ste
EXTD=inkogler and The Lebanan Blues - 
EXTT0=
EXTT1=
EXTT2=
EXTT3=
EXTT4=
EXTT5=
EXTT6=
EXTT7=
EXTT8=
PLAYORDER=
